<mxfile host="app.diagrams.net" modified="2023-04-27T06:05:00.161Z" agent="Mozilla/5.0 (Windows NT 10.0; Win64; x64) AppleWebKit/537.36 (KHTML, like Gecko) Chrome/112.0.0.0 Safari/537.36" version="21.2.3" etag="p9fK70pOYZWXj674EEz5" type="github">
  <diagram name="第 1 页" id="FAEgPT-Lp6yeKO05tgh0">
    <mxGraphModel>
      <root>
        <mxCell id="0" />
        <mxCell id="1" parent="0" />
      </root>
    </mxGraphModel>
  </diagram>
</mxfile>
